<?xml version="1.0" encoding="UTF-8" standalone="no"?><!DOCTYPE svg PUBLIC "-//W3C//DTD SVG 1.1//EN" "http://www.w3.org/Graphics/SVG/1.1/DTD/svg11.dtd"><svg width="100%" height="100%" viewBox="0 0 1050 1050" version="1.1" xmlns="http://www.w3.org/2000/svg" xmlns:xlink="http://www.w3.org/1999/xlink" xml:space="preserve" xmlns:serif="http://www.serif.com/" style="fill-rule:evenodd;clip-rule:evenodd;stroke-linejoin:round;stroke-miterlimit:2;"><g><circle cx="75" cy="525" r="64.776" style="fill:#fca311;"/><circle cx="975" cy="525" r="64.776" style="fill:#fca311;"/><circle cx="525" cy="75" r="64.776" style="fill:#fca311;"/><circle cx="375" cy="225" r="64.776" style="fill:#fca311;"/><circle cx="675" cy="225" r="64.776" style="fill:#fca311;"/><circle cx="225" cy="375" r="64.776" style="fill:#fca311;"/><circle cx="825" cy="375" r="64.776" style="fill:#fca311;"/><circle cx="975" cy="675" r="64.776" style="fill:#fca311;"/><circle cx="675" cy="375" r="64.776" style="fill:#fca311;"/><circle cx="825" cy="525" r="64.776" style="fill:#fca311;"/><circle cx="975" cy="825" r="64.776" style="fill:#fca311;"/><circle cx="675" cy="525" r="64.776" style="fill:#fca311;"/><circle cx="825" cy="675" r="64.776" style="fill:#fca311;"/><circle cx="975" cy="975" r="64.776" style="fill:#fca311;"/><circle cx="675" cy="675" r="64.776" style="fill:#fca311;"/><circle cx="825" cy="825" r="64.776" style="fill:#fca311;"/><circle cx="75" cy="675" r="64.776" style="fill:#fca311;"/><circle cx="525" cy="225" r="64.776" style="fill:#fca311;"/><circle cx="375" cy="375" r="64.776" style="fill:#fca311;"/><circle cx="225" cy="525" r="64.776" style="fill:#fca311;"/><circle cx="75" cy="825" r="64.776" style="fill:#fca311;"/><circle cx="525" cy="375" r="64.776" style="fill:#fca311;"/><circle cx="375" cy="525" r="64.776" style="fill:#fca311;"/><circle cx="225" cy="675" r="64.776" style="fill:#fca311;"/><circle cx="75" cy="975" r="64.776" style="fill:#fca311;"/><circle cx="525" cy="525" r="64.776" style="fill:#fca311;"/><circle cx="375" cy="675" r="64.776" style="fill:#fca311;"/><circle cx="225" cy="825" r="64.776" style="fill:#fca311;"/></g></svg>